<?xml version="1.0" encoding="UTF-8"?>
<!DOCTYPE svg PUBLIC "-//W3C//DTD SVG 1.1//EN" "http://www.w3.org/Graphics/SVG/1.1/DTD/svg11.dtd">
<!-- Creator: CorelDRAW -->
<svg xmlns="http://www.w3.org/2000/svg" xml:space="preserve" width="55.8809mm" height="37.2195mm" version="1.1" style="shape-rendering:geometricPrecision; text-rendering:geometricPrecision; image-rendering:optimizeQuality; fill-rule:evenodd; clip-rule:evenodd"
viewBox="0 0 1278.19 851.34"
 xmlns:xlink="http://www.w3.org/1999/xlink"
 xmlns:xodm="http://www.corel.com/coreldraw/odm/2003">
 <defs>
  <style type="text/css">
   <![CDATA[
    .fil3 {fill:#FEFEFE}
    .fil2 {fill:#FEFEFE}
    .fil1 {fill:#1193FC}
    .fil4 {fill:#1265E9}
    .fil6 {fill:url(#id0)}
    .fil7 {fill:url(#id1)}
    .fil0 {fill:url(#id2)}
    .fil5 {fill:url(#id3)}
   ]]>
  </style>
  <linearGradient id="id0" gradientUnits="userSpaceOnUse" x1="312.75" y1="451.95" x2="546.4" y2="451.95">
   <stop offset="0" style="stop-opacity:1; stop-color:#0062FF"/>
   <stop offset="1" style="stop-opacity:1; stop-color:#BFD0FF"/>
  </linearGradient>
  <linearGradient id="id1" gradientUnits="userSpaceOnUse" xlink:href="#id0" x1="465.55" y1="77.44" x2="840.76" y2="77.44">
  </linearGradient>
  <linearGradient id="id2" gradientUnits="userSpaceOnUse" x1="644.29" y1="339.1" x2="1079.14" y2="339.1">
   <stop offset="0" style="stop-opacity:1; stop-color:#043AB0"/>
   <stop offset="1" style="stop-opacity:1; stop-color:#1974F6"/>
  </linearGradient>
  <linearGradient id="id3" gradientUnits="userSpaceOnUse" xlink:href="#id0" x1="744.72" y1="456.23" x2="988.64" y2="456.23">
  </linearGradient>
 </defs>
 <g id="Layer_x0020_1">
  <metadata id="CorelCorpID_0Corel-Layer"/>
  <g id="_2378660356992">
   <path class="fil0" d="M645.01 506.6l-0.07 0.18c-2.17,6.62 1.61,10.59 3.08,17.55 2.56,12.11 6.34,85.96 7.02,101.85 0.23,5.46 -0.04,40.11 0.02,40.26 8.26,-7.67 15.41,-24.36 23.43,-33.65 1.68,-4.26 8.58,-13.45 11.67,-18.13l177.7 -272.47 54.28 -82.66c1.48,-7.25 42.75,-67.96 50.1,-80.38 3.97,-6.71 8.39,-12.75 12.58,-19.55l25.96 -40.93c3.65,-6.43 9.8,-14.66 12.35,-20.89l42.62 -64.27c2.8,-4.4 12.01,-18.27 13.39,-21.72l-211.24 142.81c-12.39,8.03 -23.69,15.32 -35.86,23.29 -6.9,4.52 -31.98,20.19 -34.99,24.59 -4.07,0.68 -4.71,1.57 -9.33,6.94 -3.48,4.04 -3.85,5.22 -7.21,9.51l-105.44 135.44 41.92 -29.19c5.3,-3.98 39.76,-29.25 43.27,-29.88 2.37,-4.54 78.14,-57.28 81.89,-58.15 -0.76,3.02 -78.63,109.14 -85.5,114.1l-5.84 9.02c-25.35,32.23 -53.85,72.07 -78.03,105.87 -4.96,6.93 -9.09,12.32 -13.84,19.57 -4.19,6.4 -11.76,15.08 -13.94,20.92z"/>
   <path class="fil1" d="M359.88 93.04l-105.6 -69.99c-7.5,-4.85 -30.53,-21.57 -35.82,-23.05 2.74,5.42 6.09,8.93 9.86,14.28l29.27 46.58c12.29,18.99 115.08,180.2 119.58,182.9 0.84,5.3 28.84,45.54 33.91,53.28l207.53 317.09c3.15,4.94 5.3,9.07 8.28,13.62l28.18 38.68c-0.07,-0.15 0.21,-34.79 -0.02,-40.26 -0.68,-15.89 -4.46,-89.74 -7.02,-101.85 -1.47,-6.96 -5.24,-10.93 -3.08,-17.55 -5.41,0.51 -5.43,-2.11 -12.82,-12.85 -3.48,-5.06 -6.76,-10.41 -10.18,-15.56 -33.72,-50.75 -68.14,-105.53 -101.88,-155.32 -14.2,-20.95 -26.76,-41.22 -41.32,-61.59 -4.27,-5.39 -22.8,-33.25 -25.14,-40.15 5.32,2.39 10.78,8.51 16.96,12.36l101.44 76.06c5.78,4.06 12.04,8.55 17.13,12.32l44.07 33.62c-0.67,-5.13 -16.36,-23.12 -20.47,-28.82l-62.16 -88.31c-26.84,-41.38 -26.49,-38.88 -69.11,-65.9l-40.15 -26.72c-11.44,-7.41 -74.9,-51.29 -81.43,-52.88z"/>
   <path class="fil2" d="M607.03 783.09c-0.01,-29.72 0.21,-23.96 36.83,-24.39 54.48,-0.64 49.83,-4.62 49.69,25.67 -0.23,50.43 5.53,49.05 -22.69,49.07 -71.65,0.04 -63.51,6.79 -63.74,-28.49l-0.09 -21.86zm1.15 -40.28c-18.9,4.31 -20.62,16.66 -20.7,37.7 -0.26,64.97 -6.05,69.79 47.38,70.02 57.61,0.26 78.7,9.13 78.09,-39.16 -0.7,-55.36 9.99,-69.79 -47.22,-69.44 -13.25,0.08 -46.97,-1.53 -57.54,0.87z"/>
   <path class="fil2" d="M905.66 787.46l-49.32 -0.43c-2.52,26.96 10.36,12.26 26.55,16.59 2.54,0.68 1.66,0.37 3.09,1.38 1.68,7.86 1.29,21.23 -1.43,27.11 -10.68,3.12 -48.72,1.11 -63.26,1.34 -20.09,0.31 -15.67,-7.74 -15.5,-49.07 0.12,-30.24 -3.05,-25.77 38.68,-25.9 10.43,-0.03 22.04,-0.63 32.26,-0.33 9.56,0.28 5.71,1.1 10.53,5.36 3.06,2.7 0.26,1.69 5.92,2.23 2.62,0.25 6.75,0.01 9.44,-0.14 -2.27,-16.13 -12.12,-23.78 -29.84,-23.66 -18.02,0.13 -36.02,0.08 -54.05,0.07 -42.03,-0.01 -32.91,29.63 -32.59,75.81 0.13,18.37 4.11,29.48 21.02,32.47 11.68,2.06 40.49,0.33 54.02,0.37 19.29,0.05 33.9,1.82 42.08,-12.65 4.04,-7.15 4.09,-40.91 2.39,-50.53z"/>
   <path class="fil2" d="M1163.34 849.93l19.06 0.32 0.65 -77.15c5.99,2.53 37.08,34.85 43.05,42.41 7.21,9.14 12.89,13.58 20.93,21.54 7.11,7.05 12.52,17.96 30.23,12.33 0.2,-1.67 1.75,-92.88 0.34,-103.48l-0.46 -2.21c-0.05,-0.27 -0.15,-0.72 -0.28,-1.06 -4.7,-0.99 -14.59,-1.38 -18.18,0.75 -3.68,7.17 0.8,60.82 -1.51,75.6l-63.65 -63.46c-12.66,-11.96 -11.01,-15.54 -29.74,-13.12 -2.16,8.63 -1.5,94.52 -0.44,107.55z"/>
   <path class="fil2" d="M982.16 850l105.76 0.46 -0.32 -16.7c-20.52,-2.04 -70.08,3.09 -85.29,-1.36l-0.72 -28.46 72.77 -0.21c1.23,-11.39 -0.12,-14.67 -0.49,-16.21 -0.06,-0.26 -0.18,-0.69 -0.33,-1.02l-71.52 -1.18c-0.44,-4.42 -0.33,-8.39 -0.38,-12.53 -0.04,-3.12 -0.83,-10.72 1.53,-12.64 8.11,-4.02 66.89,1.28 82.76,-1.66 0.17,-2.71 0.2,-4.92 0.15,-7.63 -0.01,-0.57 -0.11,-3.28 -0.17,-3.75l-1.01 -4.14c-6.58,-1.99 -89.56,-1.21 -102.66,-0.65 -1.67,8.1 -0.68,94.05 -0.09,107.67z"/>
   <path class="fil3" d="M205.75 775.37l-0.08 74.41c20.3,1.68 84.16,0.98 104.83,0.26 1.34,-23.72 1.58,-16.27 -42.14,-16.53l-41.89 -0.29 -1.05 -29.74 72.38 0.05c0.89,-5.43 1.22,-12.27 -0.61,-17.05l-71.01 -0.68 -0.38 -26.21 82.19 -0.92 0.28 -16.23 -87.49 -0.19c-17.92,-0.02 -15.04,-7.47 -15.03,33.13z"/>
   <path class="fil4" d="M434.8 795.95c-6.01,9.25 -21.97,21.57 -26.57,26.72l-13.14 13.85c-4.08,3.87 -11.29,8.27 -13.2,13.22 3.95,0.8 21.26,0.98 24.94,-0.16 4.53,-1.41 35.27,-35.59 41.56,-39.71 6.09,2.35 24.3,20.37 28.51,25.73 9.5,12.06 16.58,18.03 39.15,13.95 -1.85,-4.71 -8.12,-9.26 -12.03,-12.79 -7.68,-6.94 -34.73,-34.34 -39.09,-40.81 3.88,-6.12 17.69,-18.15 25.34,-26.25 4.68,-4.96 7.28,-8.61 12.45,-13.29 2.59,-2.35 4.2,-3.75 6.83,-6.05 3.53,-3.09 5.36,-3.33 5.34,-7.86 -32.15,-2.88 -27.08,4.99 -52.09,28 -5.74,5.28 -9.9,10.41 -14.41,12.93l-26.63 -26.43c-14.01,-13.3 -9.26,-16.99 -38.84,-14.81 1.36,5.05 1.89,2.48 5.9,6.6 2.49,2.56 3.47,4.36 6,6.84 12,11.78 30.04,28.29 39.98,40.32z"/>
   <path class="fil3" d="M56.09 849.9l18.53 0.54 43.73 -81.06c2.92,-5.08 14.41,-23.62 14.17,-26.5 -4.38,-1.69 -13.23,-0.9 -18.72,-0.33 -6.5,4.65 -19.27,32.36 -24.56,41.44 -6.16,10.56 -17.22,34.6 -24.06,42.32 -4.02,-3.89 -32,-61.16 -37.86,-73.55 -4.73,-10 -3.65,-12.62 -27.33,-10.39 0.2,4.32 3.97,9.21 6.23,13.52l49.85 94z"/>
   <path class="fil5" d="M976.2 277c-3.62,1.01 -3.79,-1.96 -0.93,13 18.2,95.12 -8.6,171.42 -67.9,243.53 -2.98,3.62 -6.88,6.41 -9.75,9.55 -11.43,12.5 -15.13,15.9 -29.52,27.04 -27.64,21.4 -64.59,43.31 -97.75,54.19 -7.14,2.34 -24.63,5.35 -25.64,11.55 29.57,0.7 88.31,-29.78 108.5,-44.64l32.97 -24.9c3.66,-3.07 6.14,-6.25 9.82,-9.43 4.19,-3.61 5.86,-5.71 9.5,-9.83 15.2,-17.21 11.42,-10.82 26.95,-32.19 21.88,-30.1 38.73,-62.11 49.23,-104.99 9.08,-37.08 9.72,-83.29 -0.74,-121.04 -1.03,-3.71 -3.4,-14.44 -4.75,-11.83z"/>
   <path class="fil6" d="M546.4 629.08c-3.07,-4.63 -19.75,-8.43 -25.74,-10.77 -26.08,-10.17 -50.88,-23.99 -72.96,-38.98 -10.95,-7.43 -20.31,-16.28 -30.19,-23.87l-18.84 -18.4c-12.71,-11.42 -45.47,-62.34 -52.73,-77.19 -6.85,-14.01 -15.91,-38.91 -19.35,-55.29 -4.83,-23.02 -6.28,-44.73 -5.33,-68.69 0.44,-11.14 8.7,-61.16 7.53,-63.82 -7.68,3.6 -14.1,46.01 -15.23,59.78 -5.34,64.74 16.14,127.41 51.41,175.88 5.99,8.24 10.39,13.86 16.1,21.17l18.28 20.32c31.92,34.29 84.93,65.96 131.94,80.05 11.32,3.39 11.29,3.46 15.1,-0.21z"/>
   <path class="fil7" d="M465.55 113.11c8.3,4.12 26.22,-13.05 39.12,-20.9 92.6,-56.34 207.58,-58.25 298.48,-0.79 20.92,13.22 29.8,25.74 37.61,19.58 -1.48,-4.51 -3.9,-5.89 -7.56,-8.49 -56.23,-39.98 -107.37,-61.54 -181.63,-61.37 -50.52,0.11 -108.74,15.86 -149.75,43.12 -9.25,6.15 -33.49,20.94 -36.28,28.86z"/>
  </g>
 </g>
</svg>
